<svg version="1.1" viewBox="0 0 400 400" xmlns="http://www.w3.org/2000/svg" xmlns:xlink="http://www.w3.org/1999/xlink"><defs /><rect class="square dark a1" fill="#d18b47" height="45" stroke="none" width="45" x="20" y="335" /><rect class="square light b1" fill="#ffce9e" height="45" stroke="none" width="45" x="65" y="335" /><rect class="square dark c1" fill="#d18b47" height="45" stroke="none" width="45" x="110" y="335" /><rect class="square light d1" fill="#ffce9e" height="45" stroke="none" width="45" x="155" y="335" /><rect class="square dark e1" fill="#d18b47" height="45" stroke="none" width="45" x="200" y="335" /><rect class="square light f1" fill="#ffce9e" height="45" stroke="none" width="45" x="245" y="335" /><rect class="square dark g1" fill="#d18b47" height="45" stroke="none" width="45" x="290" y="335" /><rect class="square light h1" fill="#ffce9e" height="45" stroke="none" width="45" x="335" y="335" /><rect class="square light a2" fill="#ffce9e" height="45" stroke="none" width="45" x="20" y="290" /><rect class="square dark b2" fill="#d18b47" height="45" stroke="none" width="45" x="65" y="290" /><rect class="square light c2" fill="#ffce9e" height="45" stroke="none" width="45" x="110" y="290" /><rect class="square dark d2" fill="#d18b47" height="45" stroke="none" width="45" x="155" y="290" /><rect class="square light e2" fill="#ffce9e" height="45" stroke="none" width="45" x="200" y="290" /><rect class="square dark f2" fill="#d18b47" height="45" stroke="none" width="45" x="245" y="290" /><rect class="square light g2" fill="#ffce9e" height="45" stroke="none" width="45" x="290" y="290" /><rect class="square dark h2" fill="#d18b47" height="45" stroke="none" width="45" x="335" y="290" /><rect class="square dark a3" fill="#d18b47" height="45" stroke="none" width="45" x="20" y="245" /><rect class="square light b3" fill="#ffce9e" height="45" stroke="none" width="45" x="65" y="245" /><rect class="square dark c3" fill="#d18b47" height="45" stroke="none" width="45" x="110" y="245" /><rect class="square light d3" fill="#ffce9e" height="45" stroke="none" width="45" x="155" y="245" /><rect class="square dark e3" fill="#d18b47" height="45" stroke="none" width="45" x="200" y="245" /><rect class="square light f3" fill="#ffce9e" height="45" stroke="none" width="45" x="245" y="245" /><rect class="square dark g3" fill="#d18b47" height="45" stroke="none" width="45" x="290" y="245" /><rect class="square light h3" fill="#ffce9e" height="45" stroke="none" width="45" x="335" y="245" /><rect class="square light a4" fill="#ffce9e" height="45" stroke="none" width="45" x="20" y="200" /><rect class="square dark b4" fill="#d18b47" height="45" stroke="none" width="45" x="65" y="200" /><rect class="square light c4" fill="#ffce9e" height="45" stroke="none" width="45" x="110" y="200" /><rect class="square dark d4" fill="#d18b47" height="45" stroke="none" width="45" x="155" y="200" /><rect class="square light e4" fill="#ffce9e" height="45" stroke="none" width="45" x="200" y="200" /><rect class="square dark f4" fill="#d18b47" height="45" stroke="none" width="45" x="245" y="200" /><rect class="square light g4" fill="#ffce9e" height="45" stroke="none" width="45" x="290" y="200" /><rect class="square dark h4" fill="#d18b47" height="45" stroke="none" width="45" x="335" y="200" /><rect class="square dark a5" fill="#d18b47" height="45" stroke="none" width="45" x="20" y="155" /><rect class="square light b5" fill="#ffce9e" height="45" stroke="none" width="45" x="65" y="155" /><rect class="square dark c5" fill="#d18b47" height="45" stroke="none" width="45" x="110" y="155" /><rect class="square light d5" fill="#ffce9e" height="45" stroke="none" width="45" x="155" y="155" /><rect class="square dark e5" fill="#d18b47" height="45" stroke="none" width="45" x="200" y="155" /><rect class="square light f5" fill="#ffce9e" height="45" stroke="none" width="45" x="245" y="155" /><rect class="square dark g5" fill="#d18b47" height="45" stroke="none" width="45" x="290" y="155" /><rect class="square light h5" fill="#ffce9e" height="45" stroke="none" width="45" x="335" y="155" /><rect class="square light a6" fill="#ffce9e" height="45" stroke="none" width="45" x="20" y="110" /><rect class="square dark b6" fill="#d18b47" height="45" stroke="none" width="45" x="65" y="110" /><rect class="square light c6" fill="#ffce9e" height="45" stroke="none" width="45" x="110" y="110" /><rect class="square dark d6" fill="#d18b47" height="45" stroke="none" width="45" x="155" y="110" /><rect class="square light e6" fill="#ffce9e" height="45" stroke="none" width="45" x="200" y="110" /><rect class="square dark f6" fill="#d18b47" height="45" stroke="none" width="45" x="245" y="110" /><rect class="square light g6" fill="#ffce9e" height="45" stroke="none" width="45" x="290" y="110" /><rect class="square dark h6" fill="#d18b47" height="45" stroke="none" width="45" x="335" y="110" /><rect class="square dark a7" fill="#d18b47" height="45" stroke="none" width="45" x="20" y="65" /><rect class="square light b7" fill="#ffce9e" height="45" stroke="none" width="45" x="65" y="65" /><rect class="square dark c7" fill="#d18b47" height="45" stroke="none" width="45" x="110" y="65" /><rect class="square light d7" fill="#ffce9e" height="45" stroke="none" width="45" x="155" y="65" /><rect class="square dark e7" fill="#d18b47" height="45" stroke="none" width="45" x="200" y="65" /><rect class="square light f7" fill="#ffce9e" height="45" stroke="none" width="45" x="245" y="65" /><rect class="square dark g7" fill="#d18b47" height="45" stroke="none" width="45" x="290" y="65" /><rect class="square light h7" fill="#ffce9e" height="45" stroke="none" width="45" x="335" y="65" /><rect class="square light a8" fill="#ffce9e" height="45" stroke="none" width="45" x="20" y="20" /><rect class="square dark b8" fill="#d18b47" height="45" stroke="none" width="45" x="65" y="20" /><rect class="square light c8" fill="#ffce9e" height="45" stroke="none" width="45" x="110" y="20" /><rect class="square dark d8" fill="#d18b47" height="45" stroke="none" width="45" x="155" y="20" /><rect class="square light e8" fill="#ffce9e" height="45" stroke="none" width="45" x="200" y="20" /><rect class="square dark f8" fill="#d18b47" height="45" stroke="none" width="45" x="245" y="20" /><rect class="square light g8" fill="#ffce9e" height="45" stroke="none" width="45" x="290" y="20" /><rect class="square dark h8" fill="#d18b47" height="45" stroke="none" width="45" x="335" y="20" /><text alignment-baseline="middle" font-size="14" text-anchor="middle" x="42" y="10">a</text><text alignment-baseline="middle" font-size="14" text-anchor="middle" x="42" y="390">a</text><text alignment-baseline="middle" font-size="14" text-anchor="middle" x="87" y="10">b</text><text alignment-baseline="middle" font-size="14" text-anchor="middle" x="87" y="390">b</text><text alignment-baseline="middle" font-size="14" text-anchor="middle" x="132" y="10">c</text><text alignment-baseline="middle" font-size="14" text-anchor="middle" x="132" y="390">c</text><text alignment-baseline="middle" font-size="14" text-anchor="middle" x="177" y="10">d</text><text alignment-baseline="middle" font-size="14" text-anchor="middle" x="177" y="390">d</text><text alignment-baseline="middle" font-size="14" text-anchor="middle" x="222" y="10">e</text><text alignment-baseline="middle" font-size="14" text-anchor="middle" x="222" y="390">e</text><text alignment-baseline="middle" font-size="14" text-anchor="middle" x="267" y="10">f</text><text alignment-baseline="middle" font-size="14" text-anchor="middle" x="267" y="390">f</text><text alignment-baseline="middle" font-size="14" text-anchor="middle" x="312" y="10">g</text><text alignment-baseline="middle" font-size="14" text-anchor="middle" x="312" y="390">g</text><text alignment-baseline="middle" font-size="14" text-anchor="middle" x="357" y="10">h</text><text alignment-baseline="middle" font-size="14" text-anchor="middle" x="357" y="390">h</text><text alignment-baseline="middle" font-size="14" text-anchor="middle" x="10" y="357">1</text><text alignment-baseline="middle" font-size="14" text-anchor="middle" x="390" y="357">1</text><text alignment-baseline="middle" font-size="14" text-anchor="middle" x="10" y="312">2</text><text alignment-baseline="middle" font-size="14" text-anchor="middle" x="390" y="312">2</text><text alignment-baseline="middle" font-size="14" text-anchor="middle" x="10" y="267">3</text><text alignment-baseline="middle" font-size="14" text-anchor="middle" x="390" y="267">3</text><text alignment-baseline="middle" font-size="14" text-anchor="middle" x="10" y="222">4</text><text alignment-baseline="middle" font-size="14" text-anchor="middle" x="390" y="222">4</text><text alignment-baseline="middle" font-size="14" text-anchor="middle" x="10" y="177">5</text><text alignment-baseline="middle" font-size="14" text-anchor="middle" x="390" y="177">5</text><text alignment-baseline="middle" font-size="14" text-anchor="middle" x="10" y="132">6</text><text alignment-baseline="middle" font-size="14" text-anchor="middle" x="390" y="132">6</text><text alignment-baseline="middle" font-size="14" text-anchor="middle" x="10" y="87">7</text><text alignment-baseline="middle" font-size="14" text-anchor="middle" x="390" y="87">7</text><text alignment-baseline="middle" font-size="14" text-anchor="middle" x="10" y="42">8</text><text alignment-baseline="middle" font-size="14" text-anchor="middle" x="390" y="42">8</text></svg>
